:SAMPLES-PER-SECOND 30
:FULLY-SPECIFIED
:DEGREES
424
root  -2.09753 35.0777 -2.45363 -124.929 -44.7436 -50.1901
Spine  -1.42403 3.14237 11.1207
Spine1  -6.51878 9.38484 -28.4998
Neck  3.97569e-016 0 -2.38542e-015
Head  -7.88642 8.28221 3.39605
R_Clavicle  6.19152 33.7793 14.3488
R_UpperArm  67.5419 41.32 7.29311
R_Forearm  68.9644 5.13535 5.03927
R_Hand  -22.3657 9.08246 -127.464
L_Clavicle  -0.21671 -15.7362 2.38693
L_UpperArm  -47.7216 -42.7039 -2.27057
L_Forearm  -76.8671 -0.0239912 14.259
L_Hand  29.9755 -35.7778 -85.9353
L_Thigh  -16.9104 47.0608 7.30334
L_Calf  -16.6218 -10.8845 52.4151
L_Foot  -1.38346 -2.47638 -4.29753
L_Toe0  0.505156 0.0344454 -6.1361
R_Thigh  -11.1089 -57.9843 28.262
R_Calf  0.342595 6.16735 19.3255
R_Foot  -1.26362 -2.01665 5.03983
R_Toe0  -1.78853 -0.270286 -17.3236
425
root  -0.832593 35.1806 -2.87885 -150.817 -41.457 -43.9475
Spine  5.52894 12.7083 16.3284
Spine1  2.21395 -10.3213 -26.7632
Neck  3.97569e-016 0 -2.38542e-015
Head  -11.4726 8.635 3.2936
R_Clavicle  4.40971 30.0707 11.1402
R_UpperArm  65.4013 41.9607 6.07908
R_Forearm  77.7336 2.45603 6.70227
R_Hand  -16.8159 4.80964 -127.154
L_Clavicle  -1.72641 -15.4405 7.87707
L_UpperArm  -41.9472 -49.8348 -11.6641
L_Forearm  -63.7097 1.59258 17.7013
L_Hand  25.9021 -30.3382 -90.7687
L_Thigh  -20.4891 44.7373 5.08962
L_Calf  -9.98694 -9.95058 49.1361
L_Foot  -1.66529 -3.75683 -4.36805
L_Toe0  0.505156 0.0344454 -6.1361
R_Thigh  -13.4372 -58.6318 29.6675
R_Calf  1.67557 4.68882 14.5003
R_Foot  -1.34011 -1.52141 6.8475
R_Toe0  -1.78853 -0.270295 -17.3236
426
root  0.103608 35.2069 -3.59807 -175.754 -36.7977 -37.48
Spine  13.2598 20.0139 24.7864
Spine1  10.7574 -29.6416 -28.3435
Neck  3.97569e-016 0 -2.38542e-015
Head  -14.7556 9.11757 5.53069
R_Clavicle  1.52046 26.443 4.83893
R_UpperArm  66.3924 43.1732 10.8295
R_Forearm  71.4493 -0.171316 7.58653
R_Hand  -33.1101 16.6401 -129.354
L_Clavicle  -3.15853 -14.9791 13.3368
L_UpperArm  -39.2879 -60.5604 -7.79951
L_Forearm  -68.2625 6.0297 17.2738
L_Hand  25.777 -33.661 -82.952
L_Thigh  -25.069 43.4991 7.34841
L_Calf  -3.86258 -7.40625 44.6029
L_Foot  -1.98807 -4.5061 -5.37694
L_Toe0  0.505156 0.0344454 -6.1361
R_Thigh  -18.0298 -59.9055 32.4347
R_Calf  4.17012 2.67399 8.09076
R_Foot  -1.52322 -1.34735 8.68921
R_Toe0  -1.78853 -0.270304 -17.3236
427
root  0.727657 35.2112 -4.38285 163.048 -29.4141 -33.2587
Spine  19.6825 22.9126 31.6715
Spine1  17.6145 -40.9107 -30.9156
Neck  3.97569e-016 0 -2.38542e-015
Head  -14.5133 10.0491 9.29058
R_Clavicle  -0.775452 26.4619 -0.746781
R_UpperArm  70.9889 41.6958 17.5056
R_Forearm  59.0908 -1.74677 7.84818
R_Hand  -56.7529 48.9873 -117.15
L_Clavicle  -3.75186 -11.6039 17.0271
L_UpperArm  -37.1734 -73.4515 -1.45955
L_Forearm  -75.5347 11.3864 15.6715
L_Hand  26.6919 -37.3402 -77.3352
L_Thigh  -28.0265 43.7247 15.1312
L_Calf  -2.54824 -5.37649 41.0069
L_Foot  -1.87321 -3.64158 -5.79402
L_Toe0  0.505156 0.0344454 -6.1361
R_Thigh  -21.6449 -60.686 34.0557
R_Calf  6.91007 0.429721 1.09776
R_Foot  -1.69195 -1.39601 9.7998
R_Toe0  -1.78853 -0.270315 -17.3236
428
root  1.00923 35.1738 -5.21779 146.042 -20.3722 -32.1625
Spine  23.195 23.8962 34.2204
Spine1  20.601 -44.9853 -31.2922
Neck  3.97569e-016 0 -2.38542e-015
Head  -11.3834 12.3545 13.5927
R_Clavicle  -1.90479 28.4618 -3.27628
R_UpperArm  69.7116 49.9285 18.1488
R_Forearm  35.383 -19.0093 20.8208
R_Hand  -2.39055 51.7054 -20.11
L_Clavicle  -4.26836 -7.03635 22.0732
L_UpperArm  -29.1262 -80.2821 -8.72014
L_Forearm  -67.2453 12.8619 15.9701
L_Hand  24.2763 -35.8682 -74.9151
L_Thigh  -24.066 43.5675 27.8063
L_Calf  -5.71107 -5.06538 39.3914
L_Foot  -1.15657 -2.40177 -3.09283
L_Toe0  0.505156 0.0344455 -6.1361
R_Thigh  -21.8308 -60.4421 30.8424
R_Calf  9.06959 -1.7537 -5.65984
R_Foot  -2.25011 -2.33181 11.1772
R_Toe0  -1.78853 -0.270325 -17.3236
429
root  0.76965 35.0578 -6.065 130.804 -10.8435 -32.5439
Spine  25.0926 23.9718 35.3414
Spine1  21.7321 -46.3268 -31.2598
Neck  3.97569e-016 0 -2.38542e-015
Head  -8.42617 15.5225 18.5623
R_Clavicle  -1.9361 26.7813 -3.54193
R_UpperArm  59.4872 59.6715 16.9722
R_Forearm  23.2241 -28.4514 26.58
R_Hand  0.825442 17.5724 -9.35585
L_Clavicle  -6.31878 -6.19651 32.9343
L_UpperArm  -16.728 -78.9579 -26.9415
L_Forearm  -49.3032 11.1614 18.3528
L_Hand  21.6041 -35.1243 -69.7095
L_Thigh  -20.0804 40.9392 40.0794
L_Calf  -5.73512 -5.29772 40.8897
L_Foot  -0.896928 -2.82092 -1.10719
L_Toe0  0.505156 0.0344455 -6.1361
R_Thigh  -20.0271 -59.8937 24.0956
R_Calf  10.6519 -3.44347 -10.9501
R_Foot  -3.10074 -4.00917 12.3443
R_Toe0  -1.78853 -0.270336 -17.3236
430
root  -0.104703 34.8976 -6.71124 115.358 -0.955048 -33.9729
Spine  27.0576 22.8848 37.3108
Spine1  23.8327 -46.1567 -33.093
Neck  3.97569e-016 0 -2.38542e-015
Head  -6.82552 18.1546 23.8509
R_Clavicle  -1.74445 22.4309 -3.54381
R_UpperArm  59.1871 55.1548 32.3132
R_Forearm  26.4733 -10.4751 8.79026
R_Hand  1.36629 16.5343 -7.97752
L_Clavicle  -8.11922 -9.07241 37.4901
L_UpperArm  -29.9121 -78.9705 -12.5823
L_Forearm  -35.8735 10.2421 17.9958
L_Hand  24.0969 -39.2606 -68.1195
L_Thigh  -24.8897 36.9331 47.4708
L_Calf  -0.95044 -5.63891 42.9867
L_Foot  -1.16596 -2.64833 -2.84114
L_Toe0  0.505156 0.0344455 -6.1361
R_Thigh  -19.6462 -59.0955 18.6496
R_Calf  11.9438 -4.83811 -15.3951
R_Foot  -3.86882 -5.52516 13.1945
R_Toe0  -1.78853 -0.270347 -17.3236
431
root  -1.49788 34.6157 -6.88063 98.9165 8.97607 -37.7305
Spine  28.8073 22.3128 38.8821
Spine1  25.2679 -43.9457 -34.1735
Neck  3.97569e-016 0 -2.38542e-015
Head  -5.35618 19.9788 28.8612
R_Clavicle  -1.28674 19.258 -2.66297
R_UpperArm  67.6149 49.5196 45.4906
R_Forearm  31.3645 2.89277 -2.43286
R_Hand  -1.12917 18.8912 -20.7897
L_Clavicle  -8.47178 -9.37015 38.5973
L_UpperArm  -45.1047 -80.2755 7.10871
L_Forearm  -25.4927 10.99 16.2414
L_Hand  24.9663 -41.5137 -66.371
L_Thigh  -30.4664 32.6559 51.3112
L_Calf  1.21924 -5.11805 39.6253
L_Foot  -0.772497 -1.04245 -2.6848
L_Toe0  0.505156 0.0344455 -6.1361
R_Thigh  -18.4782 -57.5469 14.312
R_Calf  14.9631 -6.2035 -19.8132
R_Foot  -4.29027 -6.26579 13.8337
R_Toe0  -1.78853 -0.270359 -17.3236
432
root  -3.04268 34.2472 -6.27792 80.4722 17.6549 -44.2746
Spine  29.3215 23.4528 38.8391
Spine1  24.0788 -41.56 -32.2333
Neck  3.97569e-016 0 -2.38542e-015
Head  -4.97441 21.1225 33.4903
R_Clavicle  -0.531558 15.7377 -0.807757
R_UpperArm  76.5468 43.302 50.3683
R_Forearm  40.6613 8.77203 -7.39253
R_Hand  -5.59233 21.7495 -38.0565
L_Clavicle  -7.48398 -6.31977 38.3394
L_UpperArm  -64.897 -80.1819 30.2575
L_Forearm  -11.7259 10.4406 13.8348
L_Hand  19.387 -39.0287 -57.3683
L_Thigh  -27.2011 28.5517 50.8371
L_Calf  -4.70402 -4.41623 33.4189
L_Foot  -0.653784 -1.56121 -1.43358
L_Toe0  0.505156 0.0344455 -6.1361
R_Thigh  -12.8435 -55.5399 7.45881
R_Calf  16.5624 -6.65332 -21.2597
R_Foot  -3.30094 -4.44267 12.4841
R_Toe0  -1.78853 -0.270371 -17.3236
433
root  -4.28848 33.935 -4.67557 58.7495 23.5886 -52.6905
Spine  28.6815 25.1989 37.2592
Spine1  21.5082 -40.0813 -29.1046
Neck  3.97569e-016 0 -2.38542e-015
Head  -7.39827 19.9493 37.4264
R_Clavicle  0.119543 12.2533 1.12881
R_UpperArm  84.487 35.1522 49.5006
R_Forearm  44.5036 11.3803 -9.65288
R_Hand  -7.50351 19.3648 -47.6502
L_Clavicle  -6.82703 -5.61974 36.1881
L_UpperArm  -81.267 -74.3145 52.2169
L_Forearm  8.89423 9.60457 12.2219
L_Hand  14.395 -36.204 -47.6047
L_Thigh  -28.0981 27.3582 43.9101
L_Calf  -5.81984 -3.9984 31.2473
L_Foot  -0.882914 -1.64083 -2.51195
L_Toe0  0.505156 0.0344455 -6.1361
R_Thigh  -4.60277 -53.3579 -2.38822
R_Calf  9.00782 -4.27519 -13.5477
R_Foot  -1.19153 -0.940882 7.33115
R_Toe0  -1.78853 -0.270384 -17.3236
